<svg xmlns="http://www.w3.org/2000/svg" width="960" height="420" viewBox="0 0 960 420" role="img"><rect width="100%" height="100%" fill="#1a1816"/><rect x="0" y="0" width="120" height="420" fill="#2a2622" stroke="#3d3830"/><text x="16" y="48" fill="#aa9977" font-family="monospace" font-size="11">Overview</text><text x="16" y="84" fill="#8a8278" font-family="monospace" font-size="11">Sessions</text><text x="16" y="120" fill="#8a8278" font-family="monospace" font-size="11">Insights</text><text x="16" y="156" fill="#8a8278" font-family="monospace" font-size="11">Optimize</text><text x="16" y="192" fill="#8a8278" font-family="monospace" font-size="11">Live</text><rect x="120" y="0" width="840" height="48" fill="#2a2622" stroke="#3d3830"/><text x="140" y="30" fill="#e8e4dc" font-family="monospace" font-size="12">CAIRN · 85 sessions · live</text><rect x="140" y="68" width="280" height="72" fill="#2a2622" stroke="#3d3830" rx="4"/><text x="156" y="92" fill="#aa9977" font-family="monospace" font-size="10">TRACES</text><text x="156" y="118" fill="#e8e4dc" font-family="sans-serif" font-size="22">85</text><rect x="440" y="68" width="280" height="72" fill="#2a2622" stroke="#3d3830" rx="4"/><text x="456" y="92" fill="#aa9977" font-family="monospace" font-size="10">WASTE</text><text x="456" y="118" fill="#c4a055" font-family="sans-serif" font-size="22">12%</text><rect x="140" y="160" width="780" height="220" fill="#2a2622" stroke="#3d3830" rx="4"/><rect x="160" y="200" width="180" height="24" fill="#5a7a9e" opacity="0.7" rx="2"/><text x="160" y="250" fill="#8a8278" font-family="monospace" font-size="9">context</text><rect x="350" y="200" width="120" height="24" fill="#5a8a82" opacity="0.7" rx="2"/><text x="350" y="250" fill="#8a8278" font-family="monospace" font-size="9">tools</text><rect x="540" y="200" width="240" height="24" fill="#c4a055" opacity="0.7" rx="2"/><text x="540" y="250" fill="#8a8278" font-family="monospace" font-size="9">results</text><rect x="730" y="200" width="160" height="24" fill="#6b9e78" opacity="0.7" rx="2"/><text x="730" y="250" fill="#8a8278" font-family="monospace" font-size="9">history</text><text x="480" y="395" fill="#8a8278" font-family="monospace" font-size="10">Overview → replay → blame</text></svg>