<svg xmlns="http://www.w3.org/2000/svg" width="640" height="360" viewBox="0 0 640 360" role="img"><rect width="100%" height="100%" fill="#1a1816"/><rect x="0" y="0" width="120" height="360" fill="#2a2622" stroke="#3d3830"/><text x="16" y="48" fill="#aa9977" font-family="monospace" font-size="11">Overview</text><text x="16" y="84" fill="#8a8278" font-family="monospace" font-size="11">Sessions</text><text x="16" y="120" fill="#8a8278" font-family="monospace" font-size="11">Insights</text><text x="16" y="156" fill="#8a8278" font-family="monospace" font-size="11">Optimize</text><text x="16" y="192" fill="#8a8278" font-family="monospace" font-size="11">Live</text><rect x="130" y="24" width="220" height="64" fill="#2a2622" stroke="#3d3830" rx="3"/><text x="146" y="48" fill="#aa9977" font-family="monospace" font-size="9">SESSIONS</text><text x="146" y="72" fill="#e8e4dc" font-size="20">85</text><rect x="370" y="24" width="240" height="64" fill="#2a2622" stroke="#3d3830" rx="3"/><text x="386" y="48" fill="#aa9977" font-family="monospace" font-size="9">TAIL RISK</text><text x="386" y="72" fill="#c4a055" font-size="18">$42 worst-case</text><rect x="150" y="280" width="36" height="40" fill="#5a8a82" opacity="0.65" rx="2"/><rect x="208" y="262" width="36" height="58" fill="#5a8a82" opacity="0.65" rx="2"/><rect x="266" y="244" width="36" height="76" fill="#5a8a82" opacity="0.65" rx="2"/><rect x="324" y="226" width="36" height="94" fill="#5a8a82" opacity="0.65" rx="2"/><rect x="382" y="208" width="36" height="112" fill="#5a8a82" opacity="0.65" rx="2"/><rect x="440" y="280" width="36" height="40" fill="#5a8a82" opacity="0.65" rx="2"/><rect x="498" y="262" width="36" height="58" fill="#5a8a82" opacity="0.65" rx="2"/><rect x="556" y="244" width="36" height="76" fill="#5a8a82" opacity="0.65" rx="2"/><text x="320" y="340" fill="#8a8278" font-family="monospace" font-size="10">Overview KPIs</text></svg>